<svg width="98" height="21" viewBox="0 0 98 21" fill="none" xmlns="http://www.w3.org/2000/svg">
<path d="M4.64 16.3C2.4 16.3 0.4 14.18 0.4 11C0.4 7.56 2.26 5.8 4.58 5.8C6.54 5.8 8.02 7.4 8.02 9.06C8.02 9.82 7.78 9.88 7.36 9.88H2.38C2.36 10.06 2.36 10.26 2.36 10.46C2.36 13.5 3.7 15.02 5.42 15.02C6.34 15.02 7 14.62 7.58 13.9C7.68 13.78 7.8 13.76 7.9 13.84L7.98 13.9C8.08 13.98 8.12 14.08 8.06 14.2C7.34 15.56 6.06 16.3 4.64 16.3ZM2.42 9.18H4.48C5.7 9.18 6.06 8.88 6.06 8.12C6.06 7.2 5.36 6.48 4.48 6.48C3.36 6.48 2.64 7.26 2.42 9.18ZM13.6613 16.3C12.7613 16.3 12.1013 16.14 11.3413 15.7V18.74C11.3413 19.26 11.8413 19.66 12.3213 19.76C12.4213 19.78 12.4813 19.84 12.4813 20.02V20.12C12.4813 20.32 12.4213 20.36 12.3013 20.36C11.6813 20.36 11.0413 20.26 10.4613 20.26C9.88125 20.26 9.28125 20.36 8.66125 20.36C8.54125 20.36 8.48125 20.32 8.48125 20.12V20.02C8.48125 19.84 8.56125 19.78 8.72125 19.74C9.16125 19.62 9.62125 19.24 9.62125 18.74V8.6C9.62125 8.1 9.36125 7.74 8.68125 7.56C8.58125 7.54 8.54125 7.46 8.54125 7.36V7.2C8.54125 7.1 8.60125 7.02 8.70125 7C9.58125 6.82 10.4413 6.24 10.8613 5.82C10.9413 5.74 11.0413 5.76 11.1613 5.8C11.3013 5.86 11.3413 5.94 11.3413 6.04V6.84C12.0013 6.16 12.8413 5.8 14.0013 5.8C16.1613 5.8 18.0413 7.72 18.0413 10.68C18.0413 14.54 15.9813 16.3 13.6613 16.3ZM11.4213 14.26C12.0413 15.12 12.8213 15.54 13.7213 15.54C15.1013 15.54 16.0813 14.5 16.0813 11.16C16.0813 8.26 14.9413 6.82 13.3613 6.82C12.6213 6.82 11.8813 7.16 11.4213 7.66V14.26ZM24.8669 16.2C24.1069 16.2 23.5469 15.84 23.3069 14.68C22.4469 15.72 21.3869 16.3 20.2269 16.3C19.1469 16.3 18.4469 15.52 18.4469 14.24C18.4469 12.9 19.5269 11.72 23.1669 10.32L23.1869 8.98C23.2469 6.88 22.9269 6.48 22.0069 6.48C21.2869 6.48 20.9669 6.82 20.6869 7.86C20.3869 8.96 19.9669 9.22 19.5669 9.22C19.1869 9.22 18.8269 8.82 18.8269 8.26C18.8269 6.96 20.5669 5.8 22.2269 5.8C24.2269 5.8 25.0469 6.5 24.9869 8.7C24.9669 9.76 24.9469 11.14 24.9469 12.54C24.9669 14.66 25.1069 14.96 25.4669 14.96C25.6269 14.96 25.7669 14.9 25.8869 14.74C25.9469 14.66 26.0669 14.6 26.2269 14.7L26.2869 14.74C26.4469 14.84 26.4269 14.94 26.3669 15.12C26.1069 15.88 25.6669 16.2 24.8669 16.2ZM19.7469 1.58C20.0269 1.16 20.5269 1.14 21.0469 1.5C21.5469 1.84 22.3069 2.76 23.5469 4.04C23.7469 4.24 23.7269 4.32 23.6669 4.42L23.6069 4.52C23.5469 4.62 23.4469 4.66 23.2469 4.56C21.5269 3.76 20.5269 3.22 20.0469 2.9C19.5469 2.5 19.4069 2.02 19.7469 1.58ZM20.3669 13.88C20.3669 14.7 20.7269 15.08 21.2669 15.08C21.7069 15.08 22.5469 14.7 23.1869 13.86C23.1669 13.56 23.1469 13.26 23.1469 12.9V11.1C21.1069 11.86 20.3669 12.72 20.3669 13.88ZM26.8839 16C26.7639 16 26.7039 15.96 26.7039 15.76V15.66C26.7039 15.48 26.7839 15.42 26.9439 15.38C27.3839 15.26 27.8439 14.88 27.8439 14.38V2.94C27.8439 2.44 27.5439 2.08 26.9039 1.9C26.8039 1.88 26.7639 1.8 26.7639 1.7V1.54C26.7639 1.44 26.8239 1.36 26.9239 1.34C27.8839 1.14 28.5839 0.879999 29.1639 0.499999C29.2439 0.439999 29.3439 0.439999 29.4039 0.46L29.5039 0.499999C29.6039 0.539999 29.6439 0.619999 29.6439 0.719999V14.38C29.6439 14.9 30.1439 15.3 30.6239 15.4C30.7239 15.42 30.7839 15.48 30.7839 15.66V15.76C30.7839 15.96 30.7239 16 30.6039 16C29.9839 16 29.3439 15.9 28.7239 15.9C28.1039 15.9 27.5039 16 26.8839 16ZM39.7083 16C39.5683 16 39.4883 15.92 39.4483 15.8L37.4483 9.82L35.5283 15.8C35.4883 15.92 35.4083 16 35.2683 16H35.1083C34.9683 16 34.8883 15.92 34.8483 15.8L32.0683 7.74C31.8283 7.04 31.3083 6.7 30.8483 6.6C30.7483 6.58 30.6883 6.52 30.6883 6.34V6.24C30.6883 6.04 30.7483 6 30.8683 6C31.4883 6 32.1883 6.1 33.0083 6.1C33.7083 6.1 34.3083 6 34.9083 6C35.0283 6 35.0883 6.04 35.0883 6.24V6.34C35.0883 6.52 35.0083 6.58 34.8483 6.62C34.2083 6.8 33.9883 7.2 34.2083 7.84L35.7683 12.88L37.0483 8.64L36.7683 7.82C36.5083 7.1 36.0083 6.7 35.6483 6.6C35.5483 6.58 35.4883 6.52 35.4883 6.34V6.24C35.4883 6.04 35.5483 6 35.6683 6C36.1683 6 36.8683 6.1 37.6883 6.1C38.3883 6.1 38.9883 6 39.7083 6C39.8283 6 39.8883 6.04 39.8883 6.24V6.34C39.8883 6.52 39.8083 6.58 39.6483 6.62C38.9483 6.78 38.6883 7.16 38.8483 7.72L40.3883 12.9L42.0683 7.78C42.2683 7.1 41.8083 6.74 41.2883 6.62C41.1283 6.58 41.0483 6.52 41.0483 6.34V6.24C41.0483 6.04 41.1083 6 41.2283 6C41.5483 6 42.1683 6.1 42.7283 6.1C43.2083 6.1 43.7683 6 44.0683 6C44.1883 6 44.2483 6.04 44.2483 6.24V6.34C44.2483 6.52 44.1883 6.58 44.0883 6.6C43.6083 6.7 43.1083 7.1 42.8483 7.82L40.1283 15.8C40.0883 15.92 40.0083 16 39.8683 16H39.7083ZM44.5402 16C44.4202 16 44.3602 15.96 44.3602 15.76V15.66C44.3602 15.48 44.4402 15.42 44.6002 15.38C45.0402 15.26 45.5002 14.88 45.5002 14.38V8.8C45.5002 8.3 45.2402 7.94 44.5602 7.76C44.4602 7.74 44.4202 7.66 44.4202 7.56V7.4C44.4202 7.3 44.4802 7.24 44.5802 7.2C45.2002 7 46.2402 6.4 46.8202 5.82C46.9002 5.74 47.0002 5.76 47.1202 5.8C47.2602 5.86 47.3002 5.94 47.3002 6.04V14.38C47.3002 14.9 47.8002 15.3 48.2802 15.4C48.3802 15.42 48.4402 15.48 48.4402 15.66V15.76C48.4402 15.96 48.3802 16 48.2602 16C47.6402 16 47.0002 15.9 46.3802 15.9C45.7602 15.9 45.1602 16 44.5402 16ZM45.1202 3C45.1202 2.16 45.6002 1.6 46.3202 1.6C47.0402 1.6 47.5002 2.16 47.5002 3C47.5002 3.86 47.0402 4.42 46.3202 4.42C45.6002 4.42 45.1202 3.86 45.1202 3ZM49.1752 9.1C48.8952 9.1 48.7352 8.94 48.7352 8.66V8.34C48.7352 8.06 48.8952 7.9 49.1752 7.9H54.2552C54.5352 7.9 54.6952 8.06 54.6952 8.34V8.66C54.6952 8.94 54.5352 9.1 54.2552 9.1H49.1752ZM55.2823 16C55.1623 16 55.1023 15.96 55.1023 15.76V15.66C55.1023 15.48 55.1823 15.42 55.3423 15.38C55.7823 15.26 56.2423 14.88 56.2423 14.38V8.6C56.2423 8.1 55.9823 7.74 55.3023 7.56C55.2023 7.54 55.1623 7.46 55.1623 7.36V7.2C55.1623 7.1 55.2223 7.02 55.3223 7C56.2023 6.82 57.0623 6.24 57.4823 5.82C57.5623 5.74 57.6623 5.76 57.7823 5.8C57.9223 5.86 57.9623 5.94 57.9623 6.04V7.44C58.6223 6.48 59.6223 5.8 60.3823 5.8C61.4023 5.8 61.9023 6.44 61.9023 7.3C61.9023 7.94 61.5823 8.32 61.0023 8.32C59.9823 8.32 60.1823 7.34 59.2223 7.34C58.7023 7.34 58.3023 7.72 58.0423 8.42V14.38C58.0423 14.9 58.5423 15.3 59.0223 15.4C59.1223 15.42 59.1823 15.48 59.1823 15.66V15.76C59.1823 15.96 59.1223 16 59.0023 16C58.3823 16 57.7423 15.9 57.1223 15.9C56.5023 15.9 55.9023 16 55.2823 16ZM66.2611 16.3C64.0211 16.3 62.0211 14.18 62.0211 11C62.0211 7.56 63.8811 5.8 66.2011 5.8C68.1611 5.8 69.6411 7.4 69.6411 9.06C69.6411 9.82 69.4011 9.88 68.9811 9.88H64.0011C63.9811 10.06 63.9811 10.26 63.9811 10.46C63.9811 13.5 65.3211 15.02 67.0411 15.02C67.9611 15.02 68.6211 14.62 69.2011 13.9C69.3011 13.78 69.4211 13.76 69.5211 13.84L69.6011 13.9C69.7011 13.98 69.7411 14.08 69.6811 14.2C68.9611 15.56 67.6811 16.3 66.2611 16.3ZM63.5611 1.58C63.8411 1.16 64.3411 1.14 64.8611 1.5C65.3611 1.84 66.1211 2.76 67.3611 4.04C67.5611 4.24 67.5411 4.32 67.4811 4.42L67.4211 4.52C67.3611 4.62 67.2611 4.66 67.0611 4.56C65.3411 3.76 64.3411 3.22 63.8611 2.9C63.3611 2.5 63.2211 2.02 63.5611 1.58ZM64.0411 9.18H66.1011C67.3211 9.18 67.6811 8.88 67.6811 8.12C67.6811 7.2 66.9811 6.48 66.1011 6.48C64.9811 6.48 64.2611 7.26 64.0411 9.18ZM70.7917 2.94C70.7917 2.44 70.4917 2.08 69.8517 1.9C69.7517 1.88 69.7117 1.8 69.7117 1.7V1.54C69.7117 1.44 69.7717 1.36 69.8717 1.34C70.8317 1.14 71.4517 0.879999 72.0317 0.499999C72.1117 0.439999 72.2117 0.439999 72.2717 0.46L72.3717 0.499999C72.4717 0.539999 72.5117 0.619999 72.5117 0.719999V6.94C73.2117 6.16 74.0717 5.8 75.1717 5.8C77.3317 5.8 79.2117 7.72 79.2117 10.68C79.2117 14.54 77.0117 16.3 74.6917 16.3C73.1517 16.3 72.6317 15.4 72.0517 15.4C71.7517 15.4 71.5917 15.48 71.4517 15.78C71.3717 15.94 71.2717 16 71.1117 16H71.0117C70.8117 16 70.7117 15.88 70.7317 15.68C70.7717 15.34 70.7917 14.42 70.7917 14.08V2.94ZM72.5917 14.06C73.1317 14.94 74.0117 15.34 74.8317 15.34C76.0917 15.34 77.2517 14.5 77.2517 11.16C77.2517 8.26 76.1117 6.82 74.5317 6.82C73.8117 6.82 73.0917 7.16 72.5917 7.76V14.06ZM80.2839 2.94C80.2839 2.44 79.9839 2.08 79.3439 1.9C79.2439 1.88 79.2039 1.8 79.2039 1.7V1.54C79.2039 1.44 79.2639 1.36 79.3639 1.34C80.3239 1.14 80.9439 0.879999 81.5239 0.499999C81.6039 0.439999 81.7039 0.439999 81.7639 0.46L81.8639 0.499999C81.9639 0.539999 82.0039 0.619999 82.0039 0.719999V6.94C82.7039 6.16 83.5639 5.8 84.6639 5.8C86.8239 5.8 88.7039 7.72 88.7039 10.68C88.7039 14.54 86.5039 16.3 84.1839 16.3C82.6439 16.3 82.1239 15.4 81.5439 15.4C81.2439 15.4 81.0839 15.48 80.9439 15.78C80.8639 15.94 80.7639 16 80.6039 16H80.5039C80.3039 16 80.2039 15.88 80.2239 15.68C80.2639 15.34 80.2839 14.42 80.2839 14.08V2.94ZM82.0839 14.06C82.6239 14.94 83.5039 15.34 84.3239 15.34C85.5839 15.34 86.7439 14.5 86.7439 11.16C86.7439 8.26 85.6039 6.82 84.0239 6.82C83.3039 6.82 82.5839 7.16 82.0839 7.76V14.06ZM93.7816 16.3C91.1816 16.3 89.5016 14.24 89.5016 11.1C89.5016 7.9 91.1816 5.8 93.7616 5.8C96.3216 5.8 97.9616 7.86 97.9616 10.96C97.9616 14.18 96.3216 16.3 93.7816 16.3ZM91.4616 10.92C91.4616 13.92 92.3616 15.68 93.9416 15.68C95.2416 15.68 96.0016 14.02 96.0016 11.2C96.0016 8.18 95.1416 6.42 93.6416 6.42C92.2616 6.42 91.4616 8.08 91.4616 10.92Z" fill="#333333"/>
</svg>